<?xml version="1.0" encoding="UTF-8" standalone="no"?>
<!-- Created with Inkscape (http://www.inkscape.org/) -->

<svg
   xmlns:dc="http://purl.org/dc/elements/1.1/"
   xmlns:cc="http://creativecommons.org/ns#"
   xmlns:rdf="http://www.w3.org/1999/02/22-rdf-syntax-ns#"
   xmlns:svg="http://www.w3.org/2000/svg"
   xmlns="http://www.w3.org/2000/svg"
   xmlns:sodipodi="http://sodipodi.sourceforge.net/DTD/sodipodi-0.dtd"
   xmlns:inkscape="http://www.inkscape.org/namespaces/inkscape"
   width="210mm"
   height="297mm"
   viewBox="0 0 744.09448819 1052.3622047"
   id="svg2"
   version="1.1"
   inkscape:version="0.91 r13725"
   sodipodi:docname="right_foot.svg">
  <defs
     id="defs4" />
  <sodipodi:namedview
     id="base"
     pagecolor="#ffffff"
     bordercolor="#666666"
     borderopacity="1.0"
     inkscape:pageopacity="0.0"
     inkscape:pageshadow="2"
     inkscape:zoom="0.35"
     inkscape:cx="375"
     inkscape:cy="520"
     inkscape:document-units="px"
     inkscape:current-layer="layer1"
     showgrid="false"
     inkscape:window-width="464"
     inkscape:window-height="403"
     inkscape:window-x="115"
     inkscape:window-y="194"
     inkscape:window-maximized="0" />
  <metadata
     id="metadata7">
    <rdf:RDF>
      <cc:Work
         rdf:about="">
        <dc:format>image/svg+xml</dc:format>
        <dc:type
           rdf:resource="http://purl.org/dc/dcmitype/StillImage" />
        <dc:title></dc:title>
      </cc:Work>
    </rdf:RDF>
  </metadata>
  <g
     inkscape:label="Layer 1"
     inkscape:groupmode="layer"
     id="layer1">
    <path
       style="fill:#000000"
       d="m 147.07565,816.35255 c -42.9558,-6.14611 -70.228445,-29.93268 -79.510445,-69.34714 -4.191036,-17.79653 -5.75033,-42.90636 -3.755992,-60.48403 3.467008,-30.55737 12.375463,-50.33668 37.384907,-83.00509 42.1021,-54.99557 48.94763,-70.03836 48.76893,-107.16773 -0.0954,-19.80043 -2.74921,-34.3819 -9.03145,-49.62208 C 132.58558,426.47975 123.78886,415.05063 92.617497,383.95444 65.865788,357.26723 55.928269,345.88353 49.270985,334.2997 38.431317,315.43844 34.394265,299.45532 34.35046,275.22771 c -0.04775,-26.37227 6.077705,-44.27308 20.163994,-58.927 14.468427,-15.05148 33.143275,-22.1995 61.690316,-23.61271 40.49763,-2.00481 90.71469,8.10393 129.4152,26.05139 41.59917,19.29172 71.3379,47.62313 86.94577,82.83123 8.99905,20.29998 12.83981,37.6857 13.93162,63.06335 2.08157,48.38353 -6.79145,90.23093 -30.97449,146.08345 -34.178,78.93667 -39.15271,92.14299 -45.46709,120.70087 -3.84507,17.39006 -7.25129,45.33155 -7.26636,59.60669 -0.0444,42.10692 -10.87009,74.90922 -32.67392,99.00398 -21.01788,23.22627 -47.03822,31.47468 -83.03985,26.32359 z m 40.54164,-4.83251 c 27.42536,-6.2106 52.15216,-32.10424 63.49715,-66.49353 4.93076,-14.94625 6.88736,-28.24679 8.04651,-54.69829 2.41375,-55.08122 9.97533,-83.31351 41.69186,-155.66269 20.91441,-47.70824 28.54652,-67.94919 33.71178,-89.40627 6.46444,-26.85398 7.34314,-35.3273 7.28485,-70.24778 -0.0533,-31.88324 -0.24945,-34.21539 -4.00126,-47.55825 -7.56541,-26.90549 -18.83865,-46.60925 -37.74063,-65.96451 -30.47637,-31.20714 -77.5465,-52.82171 -135.27917,-62.12008 -22.49837,-3.62357 -56.46453,-3.63244 -70.395379,-0.0184 -37.735231,9.78956 -56.606591,35.11206 -56.606591,75.95752 0,37.12332 12.766615,61.63924 51.938957,99.73913 32.861953,31.96227 44.519543,46.58919 53.414083,67.0193 7.12662,16.36936 9.5575,28.00442 10.37181,49.6435 0.90614,24.0792 -1.51847,37.26782 -10.53861,57.32471 -6.47078,14.3882 -10.61285,20.5412 -37.70841,56.01544 -18.183896,23.80686 -19.855445,26.41409 -26.732362,41.69616 -9.506961,21.12666 -10.882763,28.31413 -10.940008,57.15282 -0.05733,28.88364 2.122181,42.31201 9.717378,59.87027 8.06612,18.64692 26.885012,36.02662 46.635582,43.06907 16.4672,5.8717 48.10048,8.19918 63.63246,4.68189 z M 310.71178,214.94866 c -10.88874,-11.97721 -11.23325,-35.44714 -0.70578,-48.0829 4.17502,-5.01114 5.70307,-5.7907 11.35063,-5.7907 11.58592,0 19.7593,12.54768 19.7593,30.33427 0,17.45536 -7.84146,29.536 -19.17162,29.536 -4.74643,0 -6.7563,-1.073 -11.23253,-5.99667 z m 20.58102,-3.62234 c 9.14091,-10.72866 8.91631,-28.91549 -0.50281,-40.71565 -5.24415,-6.56981 -10.48879,-7.23426 -16.4423,-2.08312 -7.74304,6.69952 -10.36509,22.35344 -5.7703,34.44955 5.66025,14.90107 14.39712,18.11237 22.71541,8.34922 z m -60.44232,-33.63785 c -5.18242,-5.00506 -9.50061,-16.5265 -9.50061,-25.34872 0,-7.37031 4.21047,-22.22652 8.15974,-28.79081 5.2384,-8.70705 11.63527,-12.7649 20.12277,-12.7649 6.03488,0 7.5742,0.74838 12.35428,6.00628 9.53405,10.48709 10.95508,28.65241 3.58917,45.88128 -6.1157,14.30467 -12.51625,19.95676 -22.59942,19.95676 -5.76771,0 -7.91809,-0.87602 -12.12593,-4.93989 z m 21.5135,-2.53621 c 15.65922,-12.92236 18.79982,-43.80752 5.73746,-56.42288 -4.35663,-4.20753 -6.11385,-4.93904 -10.13869,-4.2206 -7.07744,1.26331 -12.42185,6.10383 -17.03667,15.43034 -7.8793,15.92399 -6.5644,35.48596 3.00655,44.7294 4.35019,4.20133 6.13675,4.95213 10.10023,4.24464 2.64837,-0.47272 6.39737,-2.16513 8.33112,-3.7609 z m -63.70212,-16.39861 c -6.35993,-1.62026 -11.52918,-5.79431 -15.51169,-12.52534 -6.4057,-10.82662 -7.68116,-16.3145 -7.68116,-33.04946 0,-13.292257 0.55982,-17.301979 3.34357,-23.948107 8.12479,-19.397668 22.42425,-26.65518 35.37256,-17.952901 13.29682,8.936494 19.88883,29.099488 16.98427,51.949808 -3.06254,24.09339 -17.11259,39.44801 -32.50755,35.526 z m 13.93283,-6.89669 c 13.04988,-9.6734 18.90805,-32.2088 13.89683,-53.458705 -4.20325,-17.823709 -16.28703,-29.22389 -27.39902,-25.849023 -11.559,3.510636 -20.58527,21.802341 -20.47653,41.495648 0.0679,12.29564 2.28046,20.62809 7.86626,29.62402 7.11269,11.45504 17.36727,14.67056 26.11246,8.18806 z M 45.809391,154.71262 C 29.045102,147.22081 13.757723,124.12291 8.1039144,97.742919 5.2955163,84.639289 5.2753411,58.190663 8.0647543,46.410888 14.504697,19.21475 29.19479,3.7969193 48.634408,3.8314252 73.800174,3.8760953 95.689304,32.243402 101.5959,72.467068 c 5.57565,37.969822 -7.346479,73.699732 -30.03067,83.035372 -10.010034,4.11961 -15.120782,3.96289 -25.755839,-0.78982 z m 30.079436,-6.55295 C 90.221311,137.07948 97.325366,120.35508 98.447961,95.050842 99.501657,71.299962 95.296977,52.548968 84.914008,34.695262 66.36696,2.8033031 38.744003,-1.7792771 21.813653,24.227068 13.277583,37.339141 9.506858,51.977194 9.5927694,71.668798 9.7081597,98.10211 16.905325,120.37814 30.691033,136.9697 c 14.452171,17.39367 31.661808,21.65439 45.197794,11.18997 z m 74.783303,-2.50755 c -8.72155,-2.65819 -18.71013,-13.78944 -24.38473,-27.17429 -4.72765,-11.15122 -4.95508,-12.52406 -4.9775,-30.045357 -0.0202,-15.771385 0.44301,-19.4734 3.28504,-26.25502 7.74459,-18.480106 16.8156,-25.637731 31.05538,-24.504757 20.40429,1.623449 35.14549,26.314397 35.0709,58.742479 -0.0779,33.894655 -18.01882,55.951425 -40.04909,49.236945 z m 17.59752,-6.02522 c 19.31559,-10.83911 24.93383,-48.977727 11.38095,-77.257923 -13.19053,-27.524108 -37.84392,-28.577659 -49.61201,-2.120145 -12.48415,28.067363 -3.22158,67.416608 18.82383,79.967348 5.87455,3.34447 12.77031,3.13508 19.40723,-0.58928 z"
       id="path3347"
       inkscape:connector-curvature="0" />
  </g>
</svg>
